<svg xmlns="http://www.w3.org/2000/svg" width="751.524" height="254.26" viewBox="0 0 751.524 254.26">
  <g id="Group_2" data-name="Group 2" transform="translate(-580 -379)">
    <g id="Icon_feather-coffee" data-name="Icon feather-coffee" transform="translate(587 387.5)">
      <path id="Path_3" data-name="Path 3" d="M27,12H37.95a43.8,43.8,0,1,1,0,87.6H27" transform="translate(151.2 66.15)" fill="none" stroke="#707070" stroke-linecap="round" stroke-linejoin="round" stroke-width="20"/>
      <path id="Path_4" data-name="Path 4" d="M3,12H178.2v98.55a43.8,43.8,0,0,1-43.8,43.8H46.8A43.8,43.8,0,0,1,3,110.55Z" transform="translate(0 66.15)" fill="none" stroke="#707070" stroke-linecap="round" stroke-linejoin="round" stroke-width="20"/>
      <path id="Path_5" data-name="Path 5" d="M9,1.5V34.35" transform="translate(37.8 0)" fill="none" stroke="#707070" stroke-linecap="round" stroke-linejoin="round" stroke-width="20"/>
      <path id="Path_6" data-name="Path 6" d="M15,1.5V34.35" transform="translate(75.6 0)" fill="none" stroke="#707070" stroke-linecap="round" stroke-linejoin="round" stroke-width="20"/>
      <path id="Path_7" data-name="Path 7" d="M21,1.5V34.35" transform="translate(113.4 0)" fill="none" stroke="#707070" stroke-linecap="round" stroke-linejoin="round" stroke-width="20"/>
    </g>
    <path id="Icon_ionic-ios-heart-empty" data-name="Icon ionic-ios-heart-empty" d="M144.431,3.937h-.464a52.8,52.8,0,0,0-44.08,24.128A52.8,52.8,0,0,0,55.807,3.937h-.464A52.46,52.46,0,0,0,3.375,56.369c0,17.168,7.517,41.528,22.179,61.573,27.933,38.187,74.333,71.6,74.333,71.6s46.4-33.408,74.333-71.6C188.882,97.9,196.4,73.537,196.4,56.369A52.46,52.46,0,0,0,144.431,3.937Zm19.3,106.349c-19.766,27.051-49.88,52.014-63.846,62.918-13.966-10.9-44.08-35.914-63.846-62.965-13.6-18.56-19.674-40.414-19.674-53.87A39.368,39.368,0,0,1,55.436,16.976h.418a38.9,38.9,0,0,1,19.07,5.011A40.545,40.545,0,0,1,89.029,35.211a13.035,13.035,0,0,0,21.808,0,40.949,40.949,0,0,1,14.106-13.224,38.9,38.9,0,0,1,19.07-5.011h.418A39.368,39.368,0,0,1,183.5,56.369C183.407,69.825,177.329,91.68,163.733,110.286Z" transform="translate(870.625 431.063)" fill="#707070" stroke="#707070" stroke-width="7"/>
    <path id="Icon_metro-earth" data-name="Icon metro-earth" d="M106.913,1.928A104.342,104.342,0,1,0,211.255,106.27,104.342,104.342,0,0,0,106.913,1.928Zm0,195.642a90.993,90.993,0,0,1-36.118-7.429l47.514-53.453a6.522,6.522,0,0,0,1.647-4.333V112.791a6.521,6.521,0,0,0-6.521-6.521c-23.027,0-47.322-23.938-47.56-24.175a6.52,6.52,0,0,0-4.611-1.91H35.178a6.522,6.522,0,0,0-6.521,6.521v39.128a6.521,6.521,0,0,0,3.605,5.833l22.48,11.24V181.2A91.355,91.355,0,0,1,24.4,67.142H48.22a6.522,6.522,0,0,0,4.611-1.91L78.917,39.146a6.522,6.522,0,0,0,1.91-4.611V18.759a91.555,91.555,0,0,1,66.086,5.423c-.845.714-1.666,1.46-2.455,2.249a39.133,39.133,0,0,0,27.641,66.8q.968,0,1.94-.048c2.815,10.557,7.9,38.039-1.713,75.879a6.5,6.5,0,0,0-.172,1.065,91.015,91.015,0,0,1-65.243,27.442Z" transform="translate(1118.769 421.148)" fill="#707070" stroke="#707070" stroke-width="3"/>
  </g>
</svg>
