<svg xmlns="http://www.w3.org/2000/svg" width="125.44" height="125.44" viewBox="0 0 125.44 125.44">
  <path id="Icon_metro-earth" data-name="Icon metro-earth" d="M64.791,1.928a62.22,62.22,0,1,0,62.22,62.22,62.22,62.22,0,0,0-62.22-62.22Zm0,116.663a54.26,54.26,0,0,1-21.538-4.43L71.586,82.287a3.889,3.889,0,0,0,.982-2.584V68.037a3.889,3.889,0,0,0-3.889-3.889c-13.731,0-28.218-14.274-28.36-14.416a3.888,3.888,0,0,0-2.75-1.139H22.014a3.889,3.889,0,0,0-3.889,3.889V75.814a3.889,3.889,0,0,0,2.15,3.478L33.681,86v22.833A54.476,54.476,0,0,1,15.59,40.816h14.2a3.889,3.889,0,0,0,2.75-1.139L48.1,24.122a3.889,3.889,0,0,0,1.139-2.75V11.964A54.6,54.6,0,0,1,88.644,15.2c-.5.426-.994.871-1.464,1.341a23.335,23.335,0,0,0,16.483,39.834q.577,0,1.157-.029c1.679,6.3,4.709,22.683-1.021,45.247a3.877,3.877,0,0,0-.1.635,54.273,54.273,0,0,1-38.9,16.364Z" transform="translate(-2.071 -1.428)" fill="#fff" stroke="#fff" stroke-width="1"/>
</svg>
