<svg xmlns="http://www.w3.org/2000/svg" width="66.576" height="82.9" viewBox="0 0 66.576 82.9">
  <path id="Icon_awesome-angle-double-down" data-name="Icon awesome-angle-double-down" d="M29.749,45.494,1.463,17.208a4.971,4.971,0,0,1,0-7.051l4.7-4.7a4.971,4.971,0,0,1,7.051,0l20.05,20.05,20.05-20.05a4.971,4.971,0,0,1,7.051,0l4.742,4.68a4.971,4.971,0,0,1,0,7.051L36.82,45.473A4.977,4.977,0,0,1,29.749,45.494ZM36.82,85.427,65.106,57.141a4.971,4.971,0,0,0,0-7.051l-4.7-4.7a4.971,4.971,0,0,0-7.051,0L33.284,65.418l-20.05-20.05a4.971,4.971,0,0,0-7.051,0l-4.721,4.7a4.971,4.971,0,0,0,0,7.051L29.749,85.406A4.977,4.977,0,0,0,36.82,85.427Z" transform="translate(0.004 -3.99)" fill="#f9bd17"/>
</svg>
